<svg width="1200" height="1200" viewBox="0 0 1200 1200" fill="none" xmlns="http://www.w3.org/2000/svg">
<path d="M591.333 40.9334C589.867 41.3334 587.6 42.5334 586.267 43.7334C583.6 46.1334 517.6 144 515.067 149.333C514.533 150.4 512.533 153.733 510.533 156.667C501.333 170.4 486.533 202.933 480.8 222C475.067 241.2 472.267 254.533 469.2 276.667C468 284.933 467.333 317.467 467.067 382.133L466.533 475.733L432.267 487.2C392.933 500.267 390.4 501.067 384 503.333C381.467 504.267 376 506 372 507.2C365.333 509.333 358.133 512 351.333 514.8C347.067 516.533 334.4 521.467 329.333 523.333C313.6 529.067 293.467 536.8 286 539.867C284.533 540.533 280.933 541.867 278 543.067C265.467 547.733 260.4 549.733 256.267 551.467C251.6 553.467 247.6 552.4 246.267 548.8C245.867 547.733 239.733 538 232.533 527.067C225.467 516.267 217.733 504.267 215.333 500.667C213.067 496.933 208.133 489.467 204.667 484C189.6 460.533 175.467 438.933 171.467 433.333L167.333 427.333L166.667 323.333C165.867 207.733 166.533 216 156.533 200.4C150.667 191.067 144.133 185.067 133.867 179.2C113.067 167.467 94 167.2 71.2 178.267C63.2 182.133 49.7334 194.4 46.1334 200.933C41.4667 209.733 39.6 214.533 37.8667 222C35.0667 234.4 35.2 788.667 37.8667 795.333C41.8667 804.8 48.2667 808 63.3334 808C67.8667 808 72.1334 808.667 73.0667 809.6C74 810.533 74.6667 814.667 74.6667 818.933C74.6667 825.467 74.1334 827.333 71.3334 830C69.6 831.867 67.2 833.333 66 833.333C64.9334 833.333 59.6 837.733 54.1334 842.933C38.5334 858.4 35.6 868.4 36.2667 902.667C36.6667 926.533 37.6 930.133 44.4 935.2C48.1334 937.867 49.6 938 92.4 938C142 938 141.467 938.133 146.133 928.267C149.2 921.867 150.267 897.067 148.133 879.333C146.133 862.267 141.6 852.933 129.867 841.6C125.067 837.067 120.4 833.333 119.467 833.333C118.533 833.333 116.133 832.133 114.133 830.533C110.8 827.867 110.533 827.2 110.933 818.133L111.333 808.667L122.667 807.867C128.933 807.467 135.467 806.4 137.333 805.733C142 803.733 146.267 798.667 147.333 794C147.733 791.733 148.4 788.667 148.8 787.067C149.067 785.333 150.267 784 151.333 784C152.533 784 162.8 788.667 174.4 794.533C185.867 800.267 206.933 810.8 221.067 817.867C235.333 824.933 248.133 831.467 249.733 832.4C254.533 835.067 266.133 843.6 270.267 847.6C275.733 852.667 315.467 907.333 348.667 955.333C357.6 968.133 361.2 972 367.333 974.8C372.267 977.067 377.067 977.333 431.067 977.333C468.267 977.333 489.333 977.867 489.333 978.667C489.333 979.333 487.2 983.2 484.667 987.333C482 991.333 479.6 995.733 479.067 997.067C478.667 998.267 476.933 1003.07 475.2 1007.6C470.933 1018.53 468.133 1034.4 467.067 1053.6C466.133 1072.27 468 1079.2 475.733 1085.07L480.4 1088.67H598.533H716.667L721.2 1085.47C730.667 1078.67 732.8 1064.93 728.667 1036.13C725.733 1016 721.067 1001.87 713.067 988.133C710.267 983.6 708 979.2 708 978.533C708 977.867 732.8 977.333 766.4 977.333C819.867 977.333 825.067 977.067 830 974.8C836 972.133 839.867 968 851.333 951.467C867.733 928 893.867 891.333 911.2 867.6C930.133 841.6 933.2 839.2 976.667 817.6C990.667 810.667 1011.47 800.267 1023.07 794.533C1034.67 788.667 1045.07 784 1046.13 784C1047.07 784 1048.27 785.467 1048.67 787.333C1049.07 789.2 1049.73 792.267 1050.13 794.267C1051.07 798.667 1055.47 803.733 1060 805.733C1061.87 806.4 1068.4 807.467 1074.67 807.867L1086 808.667L1086.4 818.133C1086.8 827.2 1086.53 827.867 1083.2 830.533C1081.2 832.133 1078.8 833.333 1077.87 833.333C1076.93 833.333 1072.27 837.067 1067.47 841.6C1051.73 856.8 1047.07 872.4 1048.27 906.533C1048.93 925.067 1050.8 931.333 1057.07 935.6C1060.4 937.733 1064.4 938 1104.93 938C1147.73 938 1149.2 937.867 1152.93 935.2C1159.6 930.267 1160.67 926.533 1161.07 904C1161.6 881.6 1160.13 868.933 1155.6 858.8C1152.67 852.133 1134.8 833.333 1131.33 833.333C1130.13 833.333 1127.73 831.867 1126 830C1123.2 827.333 1122.67 825.467 1122.67 818.933C1122.67 814.667 1123.33 810.533 1124.27 809.6C1125.2 808.667 1129.47 808 1134 808C1149.07 808 1155.47 804.8 1159.47 795.333C1162.4 788.267 1162.27 236.667 1159.33 222.667C1152.93 192.533 1125.6 170.133 1095.33 170.267C1073.47 170.4 1052.67 181.867 1040.8 200.4C1030.8 216 1031.47 208 1030.67 320.667L1030 422L1024.67 430C1021.73 434.4 1018.8 439.067 1018 440.267C1016.27 443.2 1001.33 467.067 998.4 471.733C997.067 473.733 995.6 476.267 995.067 477.333C994.533 478.4 991.733 482.933 988.667 487.333C985.6 491.867 982.8 496.267 982.267 497.333C981.733 498.4 980.267 500.933 978.933 502.933C977.733 504.933 974.267 510.267 971.467 514.933C968.533 519.6 963.6 527.333 960.4 532.267C957.2 537.2 954.667 541.733 954.667 542.267C954.667 542.8 952.533 545.733 950.133 548.667L945.6 554L941.067 551.867C936 549.333 928.533 546.4 908.667 539.067C905.733 538 901.6 536.267 899.333 535.333C897.2 534.4 892.933 532.8 890 531.6C887.067 530.533 882.133 528.667 879.067 527.467C875.867 526.267 871.067 524.533 868.4 523.467C862.533 521.333 849.867 516.4 846 514.8C836.4 510.8 814.667 502.933 808.667 501.333C803.467 499.867 796.533 497.467 790.933 495.2C788.533 494.133 785.733 493.333 784.667 493.333C783.6 493.333 780.8 492.533 778.4 491.467C776 490.4 764.267 486.4 752.4 482.533L730.8 475.6L730.267 381.467C729.867 318.533 729.2 284 728.133 277.333C723.733 248.933 721.733 239.467 716.533 222C710.8 202.8 696 170.4 686.533 156.267C684.4 153.067 682.667 150.267 682.667 150C682.667 148.8 614.133 46.9334 611.467 44.2667C609.2 42 606.533 41.0667 601.2 40.6667C597.2 40.4 592.8 40.5334 591.333 40.9334ZM627.733 135.333C656.267 178.4 661.6 187.067 670.4 206.667C672.533 211.467 675.333 218.667 676.667 222.667C678 226.667 679.867 232 680.8 234.4C681.867 236.8 682.667 239.733 682.667 240.933C682.667 242.133 683.467 246.133 684.533 249.867C688.533 264.133 690.667 276.267 689.467 278.267C688.4 280.4 683.333 274.8 667.333 254C657.467 241.2 647.6 230.533 643.867 228.667C639.067 226.133 632.933 226.133 628 228.667C624.533 230.4 615.867 240 614.533 243.333C614.267 244 611.067 249.067 607.467 254.4C602.8 261.333 600.133 264 598.4 263.733C597.067 263.467 591.467 256.667 585.733 248C574.667 231.733 568.933 226.667 561.733 226.667C553.333 226.667 548.133 231.2 530 254C527.067 257.6 523.733 261.867 522.4 263.333C521.2 264.8 517.733 269.2 514.667 273.2C510.133 278.933 508.8 280 507.867 278.267C505.333 273.867 517.733 227.067 526.8 206.933C535.6 187.333 540.133 179.733 569.867 134.933C589.067 106 597.333 94.6667 598.933 94.9334C600.133 95.2 613.067 113.333 627.733 135.333ZM117.467 212.933C126.533 218.933 129.867 226.933 130.4 243.733C130.667 251.333 130.533 258.933 130.133 260.8L129.333 264L102.267 263.733L75.3334 263.333L74.9334 244.933C74.6667 228 74.8 226 77.4667 221.867C80.6667 216.533 87.4667 211.067 92.9334 209.333C99.8667 207.067 111.333 208.667 117.467 212.933ZM1110 212C1112.53 213.6 1116.4 217.067 1118.4 219.733C1121.73 224.133 1122 225.333 1122.4 240.933L1122.93 257.333L1095.07 257.067L1067.33 256.667V243.333C1067.33 231.6 1067.73 229.2 1070.8 223.333C1074.13 216.8 1081.73 210.133 1087.33 208.8C1093.2 207.467 1105.33 209.067 1110 212ZM567.467 288.267C584.8 315.067 587.467 318 595.333 319.467C603.067 320.8 608.933 317.867 615.733 309.067C619.2 304.667 622.267 300.4 622.667 299.467C624 296.133 636.267 278.667 637.2 278.667C638.533 278.667 644.267 284.8 650.933 293.467C654.133 297.6 662.4 308.133 669.467 316.8C676.4 325.6 684.4 335.6 687.067 339.2L692 345.733V517.467C692 686 692 689.333 689.467 689.333C688 689.333 686.667 688.933 686.4 688.267C686.267 687.733 677.067 679.867 666.133 670.667C655.2 661.467 643.867 651.867 640.8 649.2L635.467 644.4L654.8 605.867L674 567.333V536V504.667L670.133 495.333C668 490.133 665.2 483.6 663.867 480.667C662.533 477.733 651.2 451.333 638.667 422C626.133 392.667 614.933 367.333 613.867 365.6C610.933 361.067 604 357.333 598.667 357.333C593.333 357.333 586.4 361.067 583.467 365.6C582.4 367.333 568.4 398.933 552.4 436L523.333 503.333V535.333V567.333L542.533 605.867L561.733 644.4L556.4 649.2C553.467 651.867 542.133 661.467 531.2 670.667C520.267 679.867 511.2 687.733 510.933 688.267C510.667 688.933 509.333 689.333 507.867 689.333C505.333 689.333 505.333 686.4 505.6 516.267L506 343.333L509.6 339.333C513.733 334.667 537.867 304.533 546.4 293.467C553.067 284.8 558.8 278.667 560.133 278.667C560.667 278.667 564 283.067 567.467 288.267ZM130.4 370.4C130.667 425.467 131.067 439.333 132.533 441.733C133.467 443.333 137.867 450 142.133 456.667C146.533 463.2 150.267 469.2 150.667 470C151.067 470.667 154.933 476.667 159.2 483.333C163.6 489.867 169.867 499.467 173.067 504.667C176.4 509.733 183.467 520.533 188.667 528.667C194 536.667 200.933 547.467 204.267 552.667C207.6 557.733 213.067 566.267 216.4 571.6L222.667 581.067V636.533C222.8 667.067 222.4 692.667 222 693.333C220.8 695.2 151.067 695.067 150 693.2C149.467 692.533 149.2 677.067 149.2 658.933C149.467 616.533 149.067 614.667 137.6 600C128.4 588.133 102.933 556.133 98.9334 551.333C97.6 549.867 91.8667 542.667 86 535.333L75.3334 522.133L74.6667 413.067C74.2667 353.067 74.2667 303.333 74.4 302.667C74.8 301.733 84.6667 301.467 102.4 301.6L130 302L130.4 370.4ZM1122.93 302.667C1123.2 303.333 1123.07 353.067 1122.67 413.067L1122 522.133L1111.33 535.333C1105.47 542.667 1099.73 549.867 1098.4 551.333C1095.2 555.2 1070.13 586.533 1060.13 599.2C1055.47 605.2 1051.07 611.467 1050.27 613.333C1049.33 615.333 1048.53 630.933 1048 652.667L1047.33 688.667H1011.33H975.333L974.933 634.133C974.667 593.733 975.067 579.2 976.267 577.733C977.733 576 984.4 565.2 1006.93 528.933C1012.27 520.267 1017.6 511.733 1018.67 510C1019.73 508.267 1023.33 502.533 1026.67 497.2C1030 492 1033.6 486.267 1034.67 484.533C1035.73 482.8 1039.87 476.133 1043.87 469.733C1047.87 463.333 1053.73 454 1056.93 449.067C1060.13 444.133 1062.67 439.6 1062.67 438.933C1062.67 438.267 1063.6 436.933 1064.67 436C1066.4 434.533 1066.67 425.467 1066.67 368.667C1066.67 332.667 1067.07 302.667 1067.6 302.267C1069.07 300.8 1122.4 301.2 1122.93 302.667ZM602 430.933C602.533 432.667 603.867 436.133 604.933 438.667C606.133 441.2 607.867 445.333 608.933 447.6C609.867 450 611.6 454.267 612.8 456.933C614 459.733 615.733 463.733 616.533 466C617.467 468.133 619.2 472.267 620.4 475.067C637.333 514 636 508.533 636 535.6V559.467L621.067 589.333L606 619.333H598.667H591.333L576.4 589.333L561.333 559.467V535.6C561.333 510.533 561.333 510.667 569.067 493.333C570.133 490.8 572 486.667 572.933 484.4C573.867 482 575.733 477.733 576.933 475.067C580.4 467.2 582.933 461.067 584.933 456.267C588.533 447.467 590.933 441.867 592.8 438.267C593.867 436.133 594.667 433.733 594.667 432.8C594.667 430.667 597.467 428 599.467 428C600.4 428 601.6 429.333 602 430.933ZM466.4 689.6L466 863.333L430.8 863.733C406 864 395.067 863.6 393.867 862.533C392.267 861.2 392 835.2 392 701.867C392 544.4 392 542.667 394.667 540C396.133 538.533 398.267 537.333 399.333 537.333C400.4 537.333 403.2 536.533 405.6 535.467C408 534.4 416.667 531.467 424.667 528.8C432.8 526.267 441.2 523.467 443.333 522.667C453.067 519.333 463.467 516.133 465.067 516C466.4 516 466.667 551.2 466.4 689.6ZM742.267 518.8C747.333 520.4 753.467 522.4 756 523.333C758.533 524.4 766.667 527.067 774 529.333C781.333 531.733 789.333 534.4 791.733 535.467C794.133 536.533 796.933 537.333 798 537.333C799.067 537.333 801.2 538.533 802.667 540C805.333 542.667 805.333 544.4 805.333 701.867C805.333 835.2 805.067 861.2 803.467 862.533C802.267 863.6 791.333 864 766.533 863.733L731.333 863.333L730.933 689.6C730.8 576.533 731.067 516 732 516C732.667 516 737.333 517.2 742.267 518.8ZM354 624.8V694L308.8 694.4C273.467 694.667 263.333 694.267 262.4 693.067C261.867 692.133 261.333 668.8 261.333 641.2C261.333 602.533 261.733 590.667 263.067 589.733C264.533 588.667 275.733 584 288.4 579.2C291.067 578.133 295.733 576.4 298.667 575.333C301.6 574.267 306.267 572.533 309.067 571.467C311.733 570.4 319.067 567.6 325.333 565.2C331.6 562.8 338.533 560.133 340.933 559.067C343.2 558.133 346 557.333 347.067 557.333C348.267 557.333 349.6 556.667 350 555.867C350.533 555.2 351.6 554.8 352.4 555.067C353.6 555.467 354 573.467 354 624.8ZM847.333 556C847.733 556.667 849.067 557.333 850.267 557.333C851.333 557.333 854.133 558.133 856.4 559.067C858.8 560.133 865.733 562.8 872 565.2C878.267 567.6 885.6 570.4 888.4 571.467C891.067 572.533 895.733 574.267 898.667 575.333C901.6 576.4 906.267 578.133 909.067 579.2C921.6 584 932.8 588.667 934.4 589.733C935.6 590.667 936 602.533 936 641.2C936 668.8 935.467 692.133 934.933 693.067C934 694.267 923.867 694.667 888.533 694.4L843.333 694L842.933 626C842.8 588.533 842.933 557.2 843.333 556.267C844 554.267 846.133 554.133 847.333 556ZM78.6667 585.2C78.6667 585.867 79.4667 587.333 80.4 588.267C81.2 589.2 84.8 593.6 88.4 598C91.8667 602.4 98.2667 610.533 102.667 616L110.533 626L110.667 697.6V769.333H92.6667C81.6 769.333 74.6667 768.8 74.6667 768C74.6667 767.2 74.6667 726.4 74.6667 677.333C74.6667 628.133 74.6667 587.067 74.6667 586C74.6667 584.933 75.6 584 76.6667 584C77.7334 584 78.6667 584.533 78.6667 585.2ZM1122.67 586C1122.67 587.067 1122.67 628.133 1122.67 677.333C1122.67 726.4 1122.67 767.2 1122.67 768C1122.67 768.8 1115.73 769.333 1104.67 769.333H1086.67V697.867V626.4L1093.07 618.533C1096.53 614.133 1100.53 608.933 1102 606.933C1105.33 602.267 1114.8 590.533 1117.07 588.267C1117.87 587.333 1118.67 585.867 1118.67 585.2C1118.67 584.533 1119.6 584 1120.67 584C1121.73 584 1122.67 584.933 1122.67 586ZM605.867 669.6C608.8 672 613.467 675.733 616.133 678C626.933 687.2 628.933 688.933 635.333 693.867C639.067 696.8 642.667 699.867 643.467 700.667C645.867 702.8 650.8 706.933 658 712.667C661.733 715.6 665.6 718.8 666.8 720C668 721.067 673.067 725.333 678 729.333C683.067 733.333 688.267 737.733 689.6 738.933C692.4 741.733 692.8 746.533 690.4 749.467C688.4 751.867 662.4 769.6 655.333 773.333C653.867 774.133 650.933 775.733 648.667 776.933C638.267 782.667 629.333 785.067 609.2 788.133C589.067 790.933 558.8 784.267 542 773.333C539.867 771.867 536.8 770.133 535.333 769.333C530.8 767.067 507.467 750.533 506.4 748.933C504.667 746.133 505.2 741.333 507.733 738.933C509.067 737.733 514.267 733.333 519.333 729.333C524.267 725.333 529.333 721.067 530.533 720C531.733 718.8 535.733 715.6 539.333 712.667C543.067 709.733 546.667 706.8 547.467 706C550.133 703.6 555.2 699.467 562 694C565.733 691.2 569.333 688.133 570 687.467C571.333 686 579.733 678.933 590.533 670.4C593.867 667.733 597.467 665.467 598.533 665.467C599.467 665.333 602.8 667.2 605.867 669.6ZM354.667 813.867C354.667 860.4 354.133 894.8 353.467 895.2C352.8 895.6 351.067 894 349.467 891.6C345.6 885.6 343.2 882.133 334.4 870.4C330.133 864.8 326.667 859.733 326.667 859.333C326.667 856.8 301.333 825.6 292.933 817.867C279.467 805.6 271.867 801.2 205.733 768C154.4 742.4 149.333 739.6 149.333 736.533V733.333H252H354.667V813.867ZM1048 736.667C1048 739.6 1043.07 742.4 991.733 768C960.8 783.467 931.333 798.533 926.267 801.6C917.467 806.667 902.133 818.8 896.933 824.667C892.533 829.6 870.667 858.533 870.667 859.333C870.667 859.733 867.2 864.8 862.933 870.4C854.133 882.133 851.733 885.6 847.867 891.6C846.267 894 844.533 895.6 843.867 895.2C843.2 894.8 842.667 860.4 842.667 813.867V733.333H945.333H1048V736.667ZM519.733 803.467C545.333 819.067 567.867 825.333 598.667 825.333C629.467 825.333 652 819.067 677.6 803.467C683.2 800.133 688.8 797.333 689.867 797.333C691.733 797.333 692 804.667 692 867.2C692 929.6 691.733 937.2 689.867 937.867C687.2 938.933 510.133 938.933 507.467 937.867C505.6 937.2 505.333 929.6 505.333 867.2C505.333 804.667 505.6 797.333 507.467 797.333C508.533 797.333 514.133 800.133 519.733 803.467ZM103.333 867.733C109.2 872.133 110.667 876.267 110.667 889.2V901.333H92.8C79.7334 901.333 74.8 900.933 74.4 899.6C74.1334 898.8 74.1334 892.8 74.4 886.4C74.8 875.333 75.0667 874.667 79.3334 870.267C81.8667 867.6 85.3334 865.2 86.9334 864.933C91.8667 863.867 100 865.2 103.333 867.733ZM1114.8 867.2C1120.93 871.467 1122.4 875.067 1122.67 886.667C1122.8 892.933 1122.93 898.8 1122.8 899.6C1122.67 900.933 1118.13 901.333 1104.67 901.333H1086.67V888.933C1086.67 879.467 1087.2 875.867 1088.93 873.333C1091.6 869.467 1095.47 866.4 1099.33 865.067C1102.93 863.867 1111.73 865.067 1114.8 867.2ZM466.4 919.6L466 938L430.8 938.4C406 938.667 395.067 938.267 393.867 937.2C392.4 936 392 931.6 392 919.333C392 910.4 392.4 902.667 392.933 902.267C393.333 901.733 410.133 901.333 430.267 901.333H466.8L466.4 919.6ZM805.067 918.8C805.333 932 805.067 936 803.6 937.2C802.267 938.267 791.733 938.667 766.533 938.4L731.333 938L730.933 919.6L730.533 901.333L767.6 901.6L804.667 902L805.067 918.8ZM665.333 986.267C677.067 998.8 681.733 1006.53 688.4 1024.67C690.933 1031.73 692.667 1048.8 690.933 1049.87C689.067 1050.93 508.267 1050.93 506.4 1049.87C504.4 1048.67 506.267 1033.07 509.467 1023.33C515.067 1007.07 523.467 993.733 535.467 982.8L541.333 977.333H599.2H657.067L665.333 986.267Z" fill="#f3e8ff"/>
<path d="M393.6 414.933C392.533 416 392 421.733 392 432.133C392 452.8 391.467 452.4 412.267 451.733C424.533 451.467 428.4 450.933 429.333 449.333C430.8 447.2 431.2 418.8 429.867 415.467C429.2 413.733 426.267 413.333 412.133 413.333C400.8 413.333 394.667 413.867 393.6 414.933Z" fill="#f3e8ff"/>
<path d="M767.467 415.467C766.133 418.8 766.533 447.2 768 449.333C768.933 450.933 772.8 451.467 785.067 451.733C805.867 452.4 805.333 452.8 805.333 432.133C805.333 421.733 804.8 416 803.733 414.933C802.667 413.867 796.533 413.333 785.2 413.333C771.067 413.333 768.133 413.733 767.467 415.467Z" fill="#f3e8ff"/>
<path d="M317.867 435.067C317.6 436 317.467 444 317.6 452.8L318 468.667L336.4 469.067L354.667 469.467V451.333V433.333H336.667C322.933 433.333 318.4 433.733 317.867 435.067Z" fill="#f3e8ff"/>
<path d="M842.667 451.333V469.467L861.067 469.067L879.333 468.667V451.333V434L861.067 433.6L842.667 433.2V451.333Z" fill="#f3e8ff"/>
<path d="M38.5332 977.6C36.1332 978.533 35.9998 979.733 36.2665 995.6L36.6665 1012.67H55.3332H73.9998L74.3998 995.6C74.6665 981.733 74.3998 978.533 72.7998 977.867C69.8665 976.667 41.4665 976.533 38.5332 977.6Z" fill="#f3e8ff"/>
<path d="M114.4 977.333C111.333 978.133 111.333 978.4 111.333 995.333V1012.67H130H148.667L149.067 995.6C149.333 981.2 149.067 978.533 147.333 977.867C144.667 976.8 118.4 976.4 114.4 977.333Z" fill="#f3e8ff"/>
<path d="M1050.53 977.6C1048.13 978.533 1048 979.733 1048.27 995.6L1048.67 1012.67H1067.33H1086L1086.4 995.6C1086.67 982.4 1086.4 978.4 1084.93 977.867C1082.13 976.8 1053.33 976.533 1050.53 977.6Z" fill="#f3e8ff"/>
<path d="M1126.4 977.333C1123.33 978.133 1123.33 978.4 1123.33 995.333V1012.67H1142H1160.67L1161.07 994.933C1161.33 978.8 1161.2 977.333 1159.07 977.2C1142.93 976.8 1128.93 976.8 1126.4 977.333Z" fill="#f3e8ff"/>
<path d="M469.067 1126.8C466.933 1128 466.667 1130.27 466.667 1144C466.667 1152.67 467.067 1160.67 467.467 1161.87C468.133 1163.6 471.067 1164 485.2 1164C496.533 1164 502.667 1163.47 503.733 1162.4C504.8 1161.33 505.333 1155.33 505.333 1144.4C505.333 1129.6 505.067 1128 502.8 1126.67C499.467 1124.93 472.133 1124.93 469.067 1126.8Z" fill="#f3e8ff"/>
<path d="M543.2 1127.07C542.933 1128 542.8 1136.53 542.933 1146.13L543.333 1163.33L560.8 1163.73C581.467 1164.13 580 1165.73 580 1144.27C580 1124.67 580.667 1125.33 560.533 1125.33C548.133 1125.33 543.733 1125.73 543.2 1127.07Z" fill="#f3e8ff"/>
<path d="M618.8 1127.87C617.2 1130.67 616.8 1156 618.133 1161.07C618.933 1164 619.333 1164.13 636.533 1163.73L654 1163.33V1144.67V1126L637.067 1125.6C621.333 1125.33 620 1125.47 618.8 1127.87Z" fill="#f3e8ff"/>
<path d="M694.4 1126.8C692.267 1128 692 1130.27 692 1144.4C692 1155.33 692.533 1161.33 693.6 1162.4C694.667 1163.47 700.8 1164 712.133 1164C726.267 1164 729.2 1163.6 729.867 1161.87C730.267 1160.67 730.667 1152.67 730.667 1144C730.667 1129.6 730.4 1128 728.133 1126.67C724.8 1124.93 697.467 1124.93 694.4 1126.8Z" fill="#f3e8ff"/>
</svg>
